<svg width="145" height="36" viewBox="0 0 145 36" fill="none" xmlns="http://www.w3.org/2000/svg">
<circle cx="18" cy="18" r="18" fill="url(#paint0_linear_1_4)"/>
<path d="M6 18.9657V17.5581L10.4787 13.6979H13.1232L8.02607 18.2406L13.1232 22.6553H10.3081L6 18.9657Z" fill="white"/>
<path d="M30 17.3875V18.7951L25.5213 22.6553H22.8768L27.9739 18.1126L22.8768 13.6979H25.6919L30 17.3875Z" fill="white"/>
<path d="M14.8296 27.04L19.3396 9H21.5194L17.0094 27.04H14.8296Z" fill="white"/>
<path d="M42.9595 17.718C42.9595 16.494 43.2415 15.396 43.8055 14.424C44.3815 13.452 45.1555 12.696 46.1275 12.156C47.1115 11.604 48.1855 11.328 49.3495 11.328C50.6815 11.328 51.8635 11.658 52.8955 12.318C53.9395 12.966 54.6955 13.89 55.1635 15.09H52.6975C52.3735 14.43 51.9235 13.938 51.3475 13.614C50.7715 13.29 50.1055 13.128 49.3495 13.128C48.5215 13.128 47.7835 13.314 47.1355 13.686C46.4875 14.058 45.9775 14.592 45.6055 15.288C45.2455 15.984 45.0655 16.794 45.0655 17.718C45.0655 18.642 45.2455 19.452 45.6055 20.148C45.9775 20.844 46.4875 21.384 47.1355 21.768C47.7835 22.14 48.5215 22.326 49.3495 22.326C50.1055 22.326 50.7715 22.164 51.3475 21.84C51.9235 21.516 52.3735 21.024 52.6975 20.364H55.1635C54.6955 21.564 53.9395 22.488 52.8955 23.136C51.8635 23.784 50.6815 24.108 49.3495 24.108C48.1735 24.108 47.0995 23.838 46.1275 23.298C45.1555 22.746 44.3815 21.984 43.8055 21.012C43.2415 20.04 42.9595 18.942 42.9595 17.718ZM61.5074 24.162C60.5714 24.162 59.7254 23.952 58.9694 23.532C58.2134 23.1 57.6194 22.5 57.1874 21.732C56.7554 20.952 56.5394 20.052 56.5394 19.032C56.5394 18.024 56.7614 17.13 57.2054 16.35C57.6494 15.57 58.2554 14.97 59.0234 14.55C59.7914 14.13 60.6494 13.92 61.5974 13.92C62.5454 13.92 63.4034 14.13 64.1714 14.55C64.9394 14.97 65.5454 15.57 65.9894 16.35C66.4334 17.13 66.6554 18.024 66.6554 19.032C66.6554 20.04 66.4274 20.934 65.9714 21.714C65.5154 22.494 64.8914 23.1 64.0994 23.532C63.3194 23.952 62.4554 24.162 61.5074 24.162ZM61.5074 22.38C62.0354 22.38 62.5274 22.254 62.9834 22.002C63.4514 21.75 63.8294 21.372 64.1174 20.868C64.4054 20.364 64.5494 19.752 64.5494 19.032C64.5494 18.312 64.4114 17.706 64.1354 17.214C63.8594 16.71 63.4934 16.332 63.0374 16.08C62.5814 15.828 62.0894 15.702 61.5614 15.702C61.0334 15.702 60.5414 15.828 60.0854 16.08C59.6414 16.332 59.2874 16.71 59.0234 17.214C58.7594 17.706 58.6274 18.312 58.6274 19.032C58.6274 20.1 58.8974 20.928 59.4374 21.516C59.9894 22.092 60.6794 22.38 61.5074 22.38ZM67.6399 18.996C67.6399 18 67.8439 17.118 68.2519 16.35C68.6719 15.582 69.2359 14.988 69.9439 14.568C70.6639 14.136 71.4619 13.92 72.3379 13.92C72.9859 13.92 73.6219 14.064 74.2459 14.352C74.8819 14.628 75.3859 15 75.7579 15.468V10.68H77.8279V24H75.7579V22.506C75.4219 22.986 74.9539 23.382 74.3539 23.694C73.7659 24.006 73.0879 24.162 72.3199 24.162C71.4559 24.162 70.6639 23.946 69.9439 23.514C69.2359 23.07 68.6719 22.458 68.2519 21.678C67.8439 20.886 67.6399 19.992 67.6399 18.996ZM75.7579 19.032C75.7579 18.348 75.6139 17.754 75.3259 17.25C75.0499 16.746 74.6839 16.362 74.2279 16.098C73.7719 15.834 73.2799 15.702 72.7519 15.702C72.2239 15.702 71.7319 15.834 71.2759 16.098C70.8199 16.35 70.4479 16.728 70.1599 17.232C69.8839 17.724 69.7459 18.312 69.7459 18.996C69.7459 19.68 69.8839 20.28 70.1599 20.796C70.4479 21.312 70.8199 21.708 71.2759 21.984C71.7439 22.248 72.2359 22.38 72.7519 22.38C73.2799 22.38 73.7719 22.248 74.2279 21.984C74.6839 21.72 75.0499 21.336 75.3259 20.832C75.6139 20.316 75.7579 19.716 75.7579 19.032ZM89.2531 18.798C89.2531 19.17 89.2291 19.506 89.1811 19.806H81.6031C81.6631 20.598 81.9571 21.234 82.4851 21.714C83.0131 22.194 83.6611 22.434 84.4291 22.434C85.5331 22.434 86.3131 21.972 86.7691 21.048H88.9831C88.6831 21.96 88.1371 22.71 87.3451 23.298C86.5651 23.874 85.5931 24.162 84.4291 24.162C83.4811 24.162 82.6291 23.952 81.8731 23.532C81.1291 23.1 80.5411 22.5 80.1091 21.732C79.6891 20.952 79.4791 20.052 79.4791 19.032C79.4791 18.012 79.6831 17.118 80.0911 16.35C80.5111 15.57 81.0931 14.97 81.8371 14.55C82.5931 14.13 83.4571 13.92 84.4291 13.92C85.3651 13.92 86.1991 14.124 86.9311 14.532C87.6631 14.94 88.2331 15.516 88.6411 16.26C89.0491 16.992 89.2531 17.838 89.2531 18.798ZM87.1111 18.15C87.0991 17.394 86.8291 16.788 86.3011 16.332C85.7731 15.876 85.1191 15.648 84.3391 15.648C83.6311 15.648 83.0251 15.876 82.5211 16.332C82.0171 16.776 81.7171 17.382 81.6211 18.15H87.1111ZM100.903 11.49V24H98.8505V18.528H92.9645V24H90.9125V11.49H92.9645V16.854H98.8505V11.49H100.903ZM107.546 24.162C106.61 24.162 105.764 23.952 105.008 23.532C104.252 23.1 103.658 22.5 103.226 21.732C102.794 20.952 102.578 20.052 102.578 19.032C102.578 18.024 102.8 17.13 103.244 16.35C103.688 15.57 104.294 14.97 105.062 14.55C105.83 14.13 106.688 13.92 107.636 13.92C108.584 13.92 109.442 14.13 110.21 14.55C110.978 14.97 111.584 15.57 112.028 16.35C112.472 17.13 112.694 18.024 112.694 19.032C112.694 20.04 112.466 20.934 112.01 21.714C111.554 22.494 110.93 23.1 110.138 23.532C109.358 23.952 108.494 24.162 107.546 24.162ZM107.546 22.38C108.074 22.38 108.566 22.254 109.022 22.002C109.49 21.75 109.868 21.372 110.156 20.868C110.444 20.364 110.588 19.752 110.588 19.032C110.588 18.312 110.45 17.706 110.174 17.214C109.898 16.71 109.532 16.332 109.076 16.08C108.62 15.828 108.128 15.702 107.6 15.702C107.072 15.702 106.58 15.828 106.124 16.08C105.68 16.332 105.326 16.71 105.062 17.214C104.798 17.706 104.666 18.312 104.666 19.032C104.666 20.1 104.936 20.928 105.476 21.516C106.028 22.092 106.718 22.38 107.546 22.38ZM123.344 14.082V24H121.292V22.83C120.968 23.238 120.542 23.562 120.014 23.802C119.498 24.03 118.946 24.144 118.358 24.144C117.578 24.144 116.876 23.982 116.252 23.658C115.64 23.334 115.154 22.854 114.794 22.218C114.446 21.582 114.272 20.814 114.272 19.914V14.082H116.306V19.608C116.306 20.496 116.528 21.18 116.972 21.66C117.416 22.128 118.022 22.362 118.79 22.362C119.558 22.362 120.164 22.128 120.608 21.66C121.064 21.18 121.292 20.496 121.292 19.608V14.082H123.344ZM129.292 24.162C128.512 24.162 127.81 24.024 127.186 23.748C126.574 23.46 126.088 23.076 125.728 22.596C125.368 22.104 125.176 21.558 125.152 20.958H127.276C127.312 21.378 127.51 21.732 127.87 22.02C128.242 22.296 128.704 22.434 129.256 22.434C129.832 22.434 130.276 22.326 130.588 22.11C130.912 21.882 131.074 21.594 131.074 21.246C131.074 20.874 130.894 20.598 130.534 20.418C130.186 20.238 129.628 20.04 128.86 19.824C128.116 19.62 127.51 19.422 127.042 19.23C126.574 19.038 126.166 18.744 125.818 18.348C125.482 17.952 125.314 17.43 125.314 16.782C125.314 16.254 125.47 15.774 125.782 15.342C126.094 14.898 126.538 14.55 127.114 14.298C127.702 14.046 128.374 13.92 129.13 13.92C130.258 13.92 131.164 14.208 131.848 14.784C132.544 15.348 132.916 16.122 132.964 17.106H130.912C130.876 16.662 130.696 16.308 130.372 16.044C130.048 15.78 129.61 15.648 129.058 15.648C128.518 15.648 128.104 15.75 127.816 15.954C127.528 16.158 127.384 16.428 127.384 16.764C127.384 17.028 127.48 17.25 127.672 17.43C127.864 17.61 128.098 17.754 128.374 17.862C128.65 17.958 129.058 18.084 129.598 18.24C130.318 18.432 130.906 18.63 131.362 18.834C131.83 19.026 132.232 19.314 132.568 19.698C132.904 20.082 133.078 20.592 133.09 21.228C133.09 21.792 132.934 22.296 132.622 22.74C132.31 23.184 131.866 23.532 131.29 23.784C130.726 24.036 130.06 24.162 129.292 24.162ZM144.037 18.798C144.037 19.17 144.013 19.506 143.965 19.806H136.387C136.447 20.598 136.741 21.234 137.269 21.714C137.797 22.194 138.445 22.434 139.213 22.434C140.317 22.434 141.097 21.972 141.553 21.048H143.767C143.467 21.96 142.921 22.71 142.129 23.298C141.349 23.874 140.377 24.162 139.213 24.162C138.265 24.162 137.413 23.952 136.657 23.532C135.913 23.1 135.325 22.5 134.893 21.732C134.473 20.952 134.263 20.052 134.263 19.032C134.263 18.012 134.467 17.118 134.875 16.35C135.295 15.57 135.877 14.97 136.621 14.55C137.377 14.13 138.241 13.92 139.213 13.92C140.149 13.92 140.983 14.124 141.715 14.532C142.447 14.94 143.017 15.516 143.425 16.26C143.833 16.992 144.037 17.838 144.037 18.798ZM141.895 18.15C141.883 17.394 141.613 16.788 141.085 16.332C140.557 15.876 139.903 15.648 139.123 15.648C138.415 15.648 137.809 15.876 137.305 16.332C136.801 16.776 136.501 17.382 136.405 18.15H141.895Z" fill="black"/>
<defs>
<linearGradient id="paint0_linear_1_4" x1="0" y1="18" x2="69.5" y2="18" gradientUnits="userSpaceOnUse">
<stop stop-color="#7869DC"/>
<stop offset="0.359954" stop-color="#7D67DD"/>
<stop offset="0.844329" stop-color="#945DE2"/>
<stop offset="1" stop-color="#A456E5"/>
</linearGradient>
</defs>
</svg>
